<svg viewBox="0 0 800 450" xmlns="http://www.w3.org/2000/svg" role="img" aria-label="">
  <rect width="800" height="450" fill="#F6F1E7" />
  <circle cx="211.5" cy="305.4" r="4.0" fill="#A67C2E" opacity="0.44" /><circle cx="125.6" cy="255.1" r="3.1" fill="#A67C2E" opacity="0.45" /><circle cx="532.0" cy="327.6" r="3.6" fill="#A67C2E" opacity="0.49" /><circle cx="461.3" cy="2.4" r="2.6" fill="#A67C2E" opacity="0.31" /><circle cx="420.9" cy="219.7" r="2.8" fill="#A67C2E" opacity="0.31" /><circle cx="311.4" cy="191.2" r="6.0" fill="#A67C2E" opacity="0.42" /><circle cx="404.2" cy="342.5" r="3.9" fill="#A67C2E" opacity="0.37" /><circle cx="473.2" cy="141.7" r="2.8" fill="#A67C2E" opacity="0.19" /><circle cx="154.0" cy="295.6" r="5.2" fill="#A67C2E" opacity="0.23" /><circle cx="224.8" cy="40.5" r="2.6" fill="#A67C2E" opacity="0.38" /><circle cx="582.3" cy="12.4" r="5.2" fill="#A67C2E" opacity="0.32" /><circle cx="713.3" cy="401.4" r="4.6" fill="#A67C2E" opacity="0.43" /><circle cx="475.3" cy="189.7" r="2.8" fill="#A67C2E" opacity="0.33" /><circle cx="638.0" cy="111.8" r="3.5" fill="#A67C2E" opacity="0.43" /><circle cx="537.8" cy="120.6" r="4.6" fill="#A67C2E" opacity="0.27" /><circle cx="788.7" cy="418.9" r="4.8" fill="#A67C2E" opacity="0.43" /><circle cx="67.8" cy="163.8" r="3.4" fill="#A67C2E" opacity="0.20" /><circle cx="615.2" cy="252.2" r="6.0" fill="#A67C2E" opacity="0.49" /><circle cx="521.6" cy="282.1" r="7.9" fill="#A67C2E" opacity="0.22" /><circle cx="579.9" cy="331.0" r="7.8" fill="#A67C2E" opacity="0.41" /><circle cx="720.7" cy="242.3" r="7.3" fill="#A67C2E" opacity="0.18" /><circle cx="14.7" cy="117.3" r="7.6" fill="#A67C2E" opacity="0.43" /><circle cx="342.4" cy="324.7" r="4.3" fill="#A67C2E" opacity="0.42" /><circle cx="605.6" cy="108.1" r="7.5" fill="#A67C2E" opacity="0.45" /><circle cx="36.9" cy="168.7" r="5.7" fill="#A67C2E" opacity="0.23" /><circle cx="183.1" cy="284.1" r="2.4" fill="#A67C2E" opacity="0.20" /><circle cx="625.7" cy="143.1" r="2.2" fill="#A67C2E" opacity="0.50" /><circle cx="549.8" cy="332.1" r="2.3" fill="#A67C2E" opacity="0.21" /><circle cx="774.4" cy="316.8" r="7.1" fill="#A67C2E" opacity="0.31" /><circle cx="530.6" cy="436.3" r="5.1" fill="#A67C2E" opacity="0.20" /><circle cx="604.9" cy="342.8" r="2.0" fill="#A67C2E" opacity="0.18" /><circle cx="108.3" cy="195.2" r="4.4" fill="#A67C2E" opacity="0.23" /><circle cx="298.5" cy="102.5" r="6.2" fill="#A67C2E" opacity="0.31" />
  <circle cx="612.2" cy="151.1" r="30.0" fill="none" stroke="#A67C2E" stroke-width="2.5" opacity="0.16" /><circle cx="612.2" cy="151.1" r="61.0" fill="none" stroke="#A67C2E" stroke-width="2.1" opacity="0.15" /><circle cx="612.2" cy="151.1" r="110.2" fill="none" stroke="#A67C2E" stroke-width="4.2" opacity="0.13" /><circle cx="612.2" cy="151.1" r="132.8" fill="none" stroke="#A67C2E" stroke-width="2.3" opacity="0.12" /><circle cx="612.2" cy="151.1" r="179.5" fill="none" stroke="#A67C2E" stroke-width="4.7" opacity="0.1" /><circle cx="612.2" cy="151.1" r="227.2" fill="none" stroke="#A67C2E" stroke-width="3.1" opacity="0.09" />
</svg>
