<svg viewBox="0 0 800 450" xmlns="http://www.w3.org/2000/svg" role="img" aria-label="">
  <rect width="800" height="450" fill="#F6F1E7" />
  <circle cx="482.4" cy="411.9" r="3.4" fill="#A67C2E" opacity="0.49" /><circle cx="641.5" cy="309.9" r="4.0" fill="#A67C2E" opacity="0.32" /><circle cx="405.2" cy="281.6" r="2.3" fill="#A67C2E" opacity="0.27" /><circle cx="275.2" cy="22.0" r="5.2" fill="#A67C2E" opacity="0.34" /><circle cx="774.2" cy="143.6" r="4.4" fill="#A67C2E" opacity="0.26" /><circle cx="734.8" cy="145.5" r="6.1" fill="#A67C2E" opacity="0.42" /><circle cx="218.1" cy="370.3" r="5.2" fill="#A67C2E" opacity="0.40" /><circle cx="546.4" cy="145.7" r="3.6" fill="#A67C2E" opacity="0.37" /><circle cx="697.2" cy="318.3" r="2.0" fill="#A67C2E" opacity="0.22" /><circle cx="392.7" cy="86.1" r="6.4" fill="#A67C2E" opacity="0.48" /><circle cx="599.5" cy="148.6" r="3.1" fill="#A67C2E" opacity="0.35" /><circle cx="606.9" cy="419.4" r="7.2" fill="#A67C2E" opacity="0.31" /><circle cx="503.7" cy="233.1" r="7.2" fill="#A67C2E" opacity="0.29" /><circle cx="397.7" cy="24.2" r="5.1" fill="#A67C2E" opacity="0.47" /><circle cx="373.6" cy="199.9" r="5.3" fill="#A67C2E" opacity="0.36" /><circle cx="182.6" cy="24.2" r="7.8" fill="#A67C2E" opacity="0.49" /><circle cx="774.3" cy="428.8" r="3.8" fill="#A67C2E" opacity="0.24" /><circle cx="132.4" cy="352.2" r="5.0" fill="#A67C2E" opacity="0.18" /><circle cx="460.5" cy="283.3" r="4.5" fill="#A67C2E" opacity="0.48" /><circle cx="29.1" cy="17.3" r="2.7" fill="#A67C2E" opacity="0.34" />
  <circle cx="508.1" cy="216.7" r="30.0" fill="none" stroke="#A67C2E" stroke-width="4.3" opacity="0.16" /><circle cx="508.1" cy="216.7" r="62.8" fill="none" stroke="#A67C2E" stroke-width="4.2" opacity="0.15" /><circle cx="508.1" cy="216.7" r="99.6" fill="none" stroke="#A67C2E" stroke-width="2.3" opacity="0.13" />
</svg>
