<svg viewBox="0 0 800 450" xmlns="http://www.w3.org/2000/svg" role="img" aria-label="">
  <rect width="800" height="450" fill="#F6F1E7" />
  <circle cx="272.5" cy="320.6" r="5.4" fill="#A67C2E" opacity="0.33" /><circle cx="590.5" cy="95.0" r="3.8" fill="#A67C2E" opacity="0.29" /><circle cx="89.5" cy="90.0" r="3.2" fill="#A67C2E" opacity="0.15" /><circle cx="732.7" cy="143.5" r="8.0" fill="#A67C2E" opacity="0.37" /><circle cx="10.8" cy="268.3" r="2.5" fill="#A67C2E" opacity="0.33" /><circle cx="795.8" cy="91.7" r="4.6" fill="#A67C2E" opacity="0.27" /><circle cx="248.9" cy="4.0" r="3.0" fill="#A67C2E" opacity="0.27" /><circle cx="244.3" cy="40.2" r="4.5" fill="#A67C2E" opacity="0.34" /><circle cx="737.2" cy="191.1" r="7.1" fill="#A67C2E" opacity="0.19" /><circle cx="644.6" cy="324.4" r="6.0" fill="#A67C2E" opacity="0.16" /><circle cx="315.4" cy="70.3" r="7.7" fill="#A67C2E" opacity="0.48" /><circle cx="682.7" cy="261.5" r="3.5" fill="#A67C2E" opacity="0.41" /><circle cx="565.7" cy="352.3" r="3.1" fill="#A67C2E" opacity="0.46" /><circle cx="408.7" cy="7.4" r="7.6" fill="#A67C2E" opacity="0.23" /><circle cx="129.0" cy="247.0" r="6.6" fill="#A67C2E" opacity="0.27" /><circle cx="781.5" cy="140.6" r="2.2" fill="#A67C2E" opacity="0.25" /><circle cx="101.4" cy="117.3" r="7.3" fill="#A67C2E" opacity="0.39" /><circle cx="138.2" cy="357.6" r="7.3" fill="#A67C2E" opacity="0.25" /><circle cx="280.8" cy="314.8" r="5.0" fill="#A67C2E" opacity="0.34" /><circle cx="207.9" cy="219.2" r="5.4" fill="#A67C2E" opacity="0.22" />
  <circle cx="336.4" cy="168.3" r="30.0" fill="none" stroke="#A67C2E" stroke-width="2.0" opacity="0.16" /><circle cx="336.4" cy="168.3" r="58.5" fill="none" stroke="#A67C2E" stroke-width="3.2" opacity="0.15" /><circle cx="336.4" cy="168.3" r="109.6" fill="none" stroke="#A67C2E" stroke-width="4.9" opacity="0.13" /><circle cx="336.4" cy="168.3" r="127.8" fill="none" stroke="#A67C2E" stroke-width="4.6" opacity="0.12" /><circle cx="336.4" cy="168.3" r="180.7" fill="none" stroke="#A67C2E" stroke-width="2.4" opacity="0.1" />
</svg>
